<svg xmlns="http://www.w3.org/2000/svg" xmlns:xlink="http://www.w3.org/1999/xlink" viewBox="0 0 24 24" width="24" height="24" preserveAspectRatio="xMidYMid meet" style="width: 100%; height: 100%; transform: translate3d(0px, 0px, 0px); content-visibility: visible;"><defs><clipPath id="__lottie_element_40"><rect width="24" height="24" x="0" y="0"></rect></clipPath></defs><g clip-path="url(#__lottie_element_40)"><g transform="matrix(1.000046968460083,0,0,1.000046968460083,0.0014372942969202995,0.3624534010887146)" opacity="1" style="display: block;"><g opacity="1" transform="matrix(1,0,0,1,16.552000045776367,16.5)"><path stroke-linecap="butt" stroke-linejoin="miter" fill-opacity="0" stroke-miterlimit="10" stroke="white" stroke-opacity="1" stroke-width="1.5" d=" M1.4240000247955322,-3.25 C1.4240000247955322,-3.25 -1.4240000247955322,-3.25 -1.4240000247955322,-3.25 C-2.4049999713897705,-3.25 -3.200000047683716,-2.441999912261963 -3.200000047683716,-1.4459999799728394 C-3.200000047683716,-1.4459999799728394 -3.200000047683716,1.4459999799728394 -3.200000047683716,1.4459999799728394 C-3.200000047683716,2.441999912261963 -2.4049999713897705,3.25 -1.4240000247955322,3.25 C-1.4240000247955322,3.25 1.4240000247955322,3.25 1.4240000247955322,3.25 C2.4049999713897705,3.25 3.200000047683716,2.441999912261963 3.200000047683716,1.4459999799728394 C3.200000047683716,1.4459999799728394 3.200000047683716,-1.4459999799728394 3.200000047683716,-1.4459999799728394 C3.200000047683716,-2.441999912261963 2.4049999713897705,-3.25 1.4240000247955322,-3.25z"></path></g><g opacity="1" transform="matrix(1,0,0,1,7.01200008392334,7)"><path stroke-linecap="butt" stroke-linejoin="miter" fill-opacity="0" stroke-miterlimit="10" stroke="white" stroke-opacity="1" stroke-width="1.5" d=" M1.4240000247955322,-3.25 C1.4240000247955322,-3.25 -1.4240000247955322,-3.25 -1.4240000247955322,-3.25 C-2.4049999713897705,-3.25 -3.200000047683716,-2.441999912261963 -3.200000047683716,-1.4459999799728394 C-3.200000047683716,-1.4459999799728394 -3.200000047683716,1.4459999799728394 -3.200000047683716,1.4459999799728394 C-3.200000047683716,2.441999912261963 -2.4049999713897705,3.25 -1.4240000247955322,3.25 C-1.4240000247955322,3.25 1.4240000247955322,3.25 1.4240000247955322,3.25 C2.4049999713897705,3.25 3.200000047683716,2.441999912261963 3.200000047683716,1.4459999799728394 C3.200000047683716,1.4459999799728394 3.200000047683716,-1.4459999799728394 3.200000047683716,-1.4459999799728394 C3.200000047683716,-2.441999912261963 2.4049999713897705,-3.25 1.4240000247955322,-3.25z"></path></g><g opacity="1" transform="matrix(1,0,0,1,16.48900032043457,7)"><path stroke-linecap="butt" stroke-linejoin="miter" fill-opacity="0" stroke-miterlimit="10" stroke="white" stroke-opacity="1" stroke-width="1.5" 
d=" M1.4240000247955322,-3.25 C1.4240000247955322,-3.25 -1.4240000247955322,-3.25 -1.4240000247955322,-3.25 C-2.4049999713897705,-3.25 -3.200000047683716,-2.441999912261963 -3.200000047683716,-1.4459999799728394 C-3.200000047683716,-1.4459999799728394 -3.200000047683716,1.4459999799728394 -3.200000047683716,1.4459999799728394 C-3.200000047683716,2.441999912261963 -2.4049999713897705,3.25 -1.4240000247955322,3.25 C-1.4240000247955322,3.25 1.4240000247955322,3.25 1.4240000247955322,3.25 C2.4049999713897705,3.25 3.200000047683716,2.441999912261963 3.200000047683716,1.4459999799728394 C3.200000047683716,1.4459999799728394 3.200000047683716,-1.4459999799728394 3.200000047683716,-1.4459999799728394 C3.200000047683716,-2.441999912261963 2.4049999713897705,-3.25 1.4240000247955322,-3.25z"></path></g><g opacity="1" transform="matrix(1,0,0,1,7.01200008392334,16.5)"><path stroke-linecap="butt" stroke-linejoin="miter" fill-opacity="0" stroke-miterlimit="10" stroke="white" stroke-opacity="1" stroke-width="1.5"
d=" M1.4240000247955322,-3.25 C1.4240000247955322,-3.25 -1.4240000247955322,-3.25 -1.4240000247955322,-3.25 C-2.4049999713897705,-3.25 -3.200000047683716,-2.441999912261963 -3.200000047683716,-1.4459999799728394 C-3.200000047683716,-1.4459999799728394 -3.200000047683716,1.4459999799728394 -3.200000047683716,1.4459999799728394 C-3.200000047683716,2.441999912261963 -2.4049999713897705,3.25 -1.4240000247955322,3.25 C-1.4240000247955322,3.25 1.4240000247955322,3.25 1.4240000247955322,3.25 C2.4049999713897705,3.25 3.200000047683716,2.441999912261963 3.200000047683716,1.4459999799728394 C3.200000047683716,1.4459999799728394 3.200000047683716,-1.4459999799728394 3.200000047683716,-1.4459999799728394 C3.200000047683716,-2.441999912261963 2.4049999713897705,-3.25 1.4240000247955322,-3.25z"></path></g></g></g></svg>