<svg width="56" height="56" viewBox="0 0 56 56" fill="none" xmlns="http://www.w3.org/2000/svg">
<ellipse cx="28" cy="28" rx="28" ry="28" fill="white"/>
<path fill-rule="evenodd" clip-rule="evenodd" d="M26.4321 27.7131C25.6907 28.2222 24.8855 28.776 24.0169 29.3747C23.1768 29.9637 22.4159 30.2508 21.7341 30.2358C20.9825 30.219 19.5367 29.8018 18.4619 29.4452C18.3041 29.3927 18.1501 29.3433 18.0015 29.2955C16.9091 28.9448 16.1068 28.6872 16.1872 28.0333C16.2347 27.6462 16.7567 27.2504 17.7531 26.8457C23.8897 24.116 27.9817 22.3164 30.0292 21.4469C35.8751 18.9643 37.0897 18.533 37.8815 18.5186C38.0556 18.5156 38.4449 18.5597 38.6972 18.7686C38.9101 18.9451 38.9688 19.1834 38.9968 19.3507C39.0248 19.518 39.0597 19.899 39.0319 20.1968C38.7151 23.5953 37.3444 31.8425 36.6471 35.6488C36.352 37.2594 35.7709 37.7995 35.2084 37.8522C34.2405 37.9432 33.4568 37.3728 32.5847 36.7381C32.3555 36.5712 32.1201 36.3999 31.8738 36.235C30.9066 35.5877 30.1592 35.068 29.4097 34.5469C28.7236 34.0698 28.0357 33.5914 27.1761 33.0132C25.3874 31.8097 26.1362 31.0726 27.1346 30.0898C27.2963 29.9308 27.4644 29.7652 27.6295 29.5902C27.6555 29.5626 27.7171 29.5022 27.8083 29.4145C27.9757 29.2534 28.2426 29 28.5716 28.6878C29.5437 27.7649 31.0567 26.3287 32.1362 25.2467C32.5294 24.8525 32.8652 24.5052 33.0963 24.247C33.2939 24.026 33.4149 23.8702 33.4297 23.8058C33.4427 23.7491 33.4548 23.5375 33.3318 23.4258C33.2088 23.3141 33.0271 23.3523 32.896 23.3827C32.8624 23.3905 32.7382 23.4621 32.5234 23.5976C32.2691 23.7578 31.8881 24.0075 31.3804 24.3465C30.3025 25.066 28.653 26.1882 26.4321 27.7131ZM23.9266 31.9327C23.9629 32.3043 24.0695 32.6834 24.2613 33.0583C24.6573 33.8327 25.3219 34.395 25.9583 34.8232C26.8038 35.3921 27.4796 35.8619 28.1668 36.3398L28.2592 36.4041C28.9789 36.9044 29.7171 37.4166 30.6604 38.048C30.8679 38.1869 31.0629 38.3287 31.2908 38.4946C31.3394 38.5299 31.3896 38.5664 31.4415 38.6041C31.7161 38.8033 32.0488 39.0413 32.4046 39.2547C33.1272 39.6882 34.1437 40.1436 35.4125 40.0243C37.5593 39.8226 38.4653 37.8299 38.7929 36.0419C39.4889 32.2431 40.8771 23.9066 41.2041 20.3993C41.2545 19.8585 41.1968 19.2794 41.1484 18.9901C41.0988 18.6951 40.9303 17.7858 40.089 17.0887C39.6162 16.6971 39.108 16.5255 38.7772 16.4448C38.4337 16.361 38.1057 16.3329 37.8441 16.3374L37.8417 16.3374C37.0462 16.3519 36.243 16.5852 35.0927 17.0115C33.9034 17.4521 32.0912 18.201 29.1764 19.4388C27.1125 20.3153 23.0141 22.1179 16.8977 24.8386C16.3314 25.0705 15.7662 25.3513 15.2962 25.7077C14.8677 26.0325 14.1533 26.6967 14.0218 27.7674C13.9259 28.5484 14.1502 29.2851 14.6126 29.8653C15.0089 30.3627 15.5019 30.6475 15.8288 30.8093C16.3084 31.0463 16.9598 31.2543 17.4501 31.4108C17.5695 31.4488 17.6793 31.4839 17.7747 31.5157C18.3424 31.704 19.0238 31.9138 19.6781 32.0814C20.2806 32.2355 21.0398 32.4025 21.686 32.4168C22.4769 32.4342 23.2285 32.2436 23.9266 31.9327Z" fill="black"/>
</svg>
