<svg width="50" height="50" viewBox="0 0 50 50" fill="none" xmlns="http://www.w3.org/2000/svg">
<g clip-path="url(#clip0_47_75)">
<g filter="url(#filter0_i_47_75)">
<path fill-rule="evenodd" clip-rule="evenodd" d="M22.8976 24.1482C21.5736 25.0573 20.1359 26.0463 18.5847 27.1154C17.0845 28.1672 15.7257 28.6798 14.5082 28.653C13.1661 28.6231 10.5844 27.8781 8.66512 27.2412C8.38322 27.1475 8.10827 27.0594 7.84297 26.974C5.89217 26.3478 4.45961 25.8877 4.60302 24.7199C4.68788 24.0288 5.62002 23.3219 7.39942 22.5993C18.3576 17.7248 25.6648 14.5112 29.3209 12.9585C39.76 8.52535 41.9289 7.75525 43.3429 7.72955C43.6538 7.7242 44.3491 7.8029 44.7995 8.176C45.1797 8.4911 45.2845 8.9167 45.3345 9.2154C45.3845 9.5141 45.4469 10.1945 45.3972 10.7263C44.8316 16.7949 42.3838 31.5221 41.1386 38.3191C40.6117 41.1952 39.574 42.1596 38.5696 42.2538C36.8411 42.4163 35.4417 41.3978 33.8843 40.2643C33.4751 39.9664 33.0548 39.6604 32.6148 39.3659C30.8878 38.21 29.5531 37.282 28.2148 36.3514C26.9895 35.4994 25.7612 34.6453 24.2262 33.6126C21.032 31.4636 22.3692 30.1474 24.1521 28.3924C24.4409 28.1083 24.741 27.8126 25.0358 27.5001C25.0823 27.4509 25.1922 27.3431 25.355 27.1865C25.654 26.8988 26.1307 26.4462 26.7182 25.8888C28.4541 24.2407 31.1558 21.6761 33.0835 19.744C33.7857 19.0399 34.3853 18.4199 34.7979 17.9587C35.1508 17.5641 35.3668 17.2858 35.3934 17.1709C35.4166 17.0696 35.4381 16.6918 35.2185 16.4923C34.9988 16.2929 34.6744 16.3611 34.4403 16.4153C34.3803 16.4292 34.1584 16.5571 33.7749 16.799C33.3209 17.0852 32.6405 17.531 31.7339 18.1364C29.8089 19.4213 26.8635 21.4252 22.8976 24.1482ZM18.4235 31.6832C18.4882 32.3467 18.6787 33.0237 19.0211 33.6933C19.7283 35.0761 20.9151 36.0803 22.0514 36.8449C23.5613 37.8607 24.7681 38.6996 25.9953 39.553L26.1602 39.6679C27.4455 40.5613 28.7636 41.476 30.4481 42.6034C30.8187 42.8516 31.1669 43.1047 31.5739 43.4009C31.6607 43.464 31.7502 43.5291 31.843 43.5965C32.3333 43.9522 32.9274 44.3772 33.5627 44.7583C34.8531 45.5323 36.6684 46.3456 38.934 46.1325C42.7676 45.7724 44.3855 42.2141 44.9705 39.021C46.2132 32.2376 48.6922 17.351 49.2761 11.0878C49.3662 10.1222 49.2631 9.088 49.1766 8.5714C49.0882 8.0447 48.7873 6.42095 47.2848 5.1761C46.4406 4.47685 45.5332 4.17037 44.9424 4.02626C44.3289 3.87654 43.7434 3.82642 43.2761 3.83443L43.2719 3.83449C41.8513 3.86032 40.4171 4.27703 38.3629 5.03825C36.2392 5.8251 33.0031 7.1623 27.7981 9.37275C24.1126 10.9378 16.7939 14.1567 5.87177 19.0152C4.86068 19.4293 3.85128 19.9308 3.01198 20.5672C2.24689 21.1472 0.971115 22.3332 0.73637 24.2452C0.5651 25.6398 0.965644 26.9554 1.79124 27.9914C2.49893 28.8796 3.37939 29.3883 3.96317 29.6771C4.81956 30.1004 5.98282 30.4718 6.85827 30.7512C7.07142 30.8191 7.26752 30.8819 7.43797 30.9385C8.45173 31.2748 9.66847 31.6495 10.8369 31.9488C11.9128 32.224 13.2685 32.5222 14.4223 32.5476C15.8347 32.5788 17.1769 32.2384 18.4235 31.6832Z" fill="#018EFF"/>
</g>
</g>
<defs>
<filter id="filter0_i_47_75" x="0.697388" y="3.83362" width="48.6136" height="46.3334" filterUnits="userSpaceOnUse" color-interpolation-filters="sRGB">
<feFlood flood-opacity="0" result="BackgroundImageFix"/>
<feBlend mode="normal" in="SourceGraphic" in2="BackgroundImageFix" result="shape"/>
<feColorMatrix in="SourceAlpha" type="matrix" values="0 0 0 0 0 0 0 0 0 0 0 0 0 0 0 0 0 0 127 0" result="hardAlpha"/>
<feOffset dy="4"/>
<feGaussianBlur stdDeviation="2"/>
<feComposite in2="hardAlpha" operator="arithmetic" k2="-1" k3="1"/>
<feColorMatrix type="matrix" values="0 0 0 0 0 0 0 0 0 0 0 0 0 0 0 0 0 0 0.25 0"/>
<feBlend mode="normal" in2="shape" result="effect1_innerShadow_47_75"/>
</filter>
<clipPath id="clip0_47_75">
<rect width="50" height="50" fill="white" transform="translate(0.0020752)"/>
</clipPath>
</defs>
</svg>
