<svg width="72" height="71" viewBox="0 0 72 71" fill="none" xmlns="http://www.w3.org/2000/svg">
<g filter="url(#filter0_i_49_22)">
<path fill-rule="evenodd" clip-rule="evenodd" d="M16.346 0H55.4948C58.0532 0 60.266 -4.02331e-07 62.0276 0.1632C63.8084 0.3264 65.8484 0.696001 67.5956 1.968C69.9621 3.6912 71.4884 6.3312 71.7956 9.24C72.0212 11.3904 71.33 13.3392 70.5812 14.9664C69.842 16.5744 68.7332 18.4896 67.4564 20.7072L39.6644 68.88C39.2857 69.538 38.7401 70.0846 38.0828 70.4647C37.4256 70.8447 36.6797 71.0448 35.9204 71.0448C35.1612 71.0448 34.4153 70.8447 33.758 70.4647C33.1007 70.0846 32.5552 69.538 32.1764 68.88L4.38444 20.7072C3.10764 18.4896 2.00364 16.5744 1.26444 14.9664C0.515643 13.3392 -0.180357 11.3904 0.0452432 9.24C0.196486 7.8012 0.648556 6.41027 1.37212 5.15747C2.09568 3.90468 3.07456 2.81802 4.24524 1.968C5.99724 0.696001 8.03244 0.3264 9.81324 0.1632C11.5748 -4.02331e-07 13.7972 0 16.346 0ZM9.27564 8.9952C8.93176 9.26441 8.70623 9.65694 8.64684 10.0896C8.66124 10.1712 8.73324 10.5312 9.10764 11.352C9.66444 12.552 10.562 14.1216 11.9684 16.56L31.6004 50.5872V8.64H16.5428C13.73 8.64 11.9204 8.64 10.6052 8.7648C9.70284 8.8464 9.35724 8.9664 9.27564 8.9952ZM40.2404 8.64V50.5872L59.8724 16.5552C61.2788 14.1216 62.1764 12.552 62.7332 11.352C63.1124 10.536 63.1844 10.1712 63.194 10.0896C63.1347 9.65694 62.9091 9.26441 62.5652 8.9952C62.1348 8.86432 61.6898 8.78694 61.2404 8.7648C59.9204 8.6448 58.1108 8.64 55.298 8.64H40.2404Z" fill="url(#paint0_linear_49_22)"/>
</g>
<defs>
<filter id="filter0_i_49_22" x="0.0020752" y="0" width="71.837" height="75.0449" filterUnits="userSpaceOnUse" color-interpolation-filters="sRGB">
<feFlood flood-opacity="0" result="BackgroundImageFix"/>
<feBlend mode="normal" in="SourceGraphic" in2="BackgroundImageFix" result="shape"/>
<feColorMatrix in="SourceAlpha" type="matrix" values="0 0 0 0 0 0 0 0 0 0 0 0 0 0 0 0 0 0 127 0" result="hardAlpha"/>
<feOffset dy="6"/>
<feGaussianBlur stdDeviation="2"/>
<feComposite in2="hardAlpha" operator="arithmetic" k2="-1" k3="1"/>
<feColorMatrix type="matrix" values="0 0 0 0 0 0 0 0 0 0 0 0 0 0 0 0 0 0 0.25 0"/>
<feBlend mode="normal" in2="shape" result="effect1_innerShadow_49_22"/>
</filter>
<linearGradient id="paint0_linear_49_22" x1="35.9206" y1="0" x2="35.9206" y2="71.0448" gradientUnits="userSpaceOnUse">
<stop stop-color="#0066FF"/>
<stop offset="1" stop-color="#00FFFF"/>
</linearGradient>
</defs>
</svg>
