<svg xmlns="http://www.w3.org/2000/svg" viewBox="0 0 24 24" fill="none"> <g clip-path="url(#clip0_697_2250)"> <path d="M12 23C18.075175 23 23 18.075175 23 12C23 5.924875 18.075175 1 12 1C5.924875 1 1 5.924875 1 12C1 18.075175 5.924875 23 12 23Z" stroke="white" stroke-width="1.8" stroke-linecap="round" stroke-linejoin="round"></path> <path d="M12.001725 7.111325V19.33355L6.03665 9.122675C5.9337 8.916825 5.883825 8.689125 5.891375 8.459725C5.8989 8.230325 5.963625 8.0063 6.0799 7.80745C6.196175 7.608575 6.360375 7.441025 6.55795 7.3196C6.75555 7.1982 6.980325 7.126675 7.212625 7.111325H12.001725Z" stroke="white" stroke-width="1.8" stroke-linecap="round" stroke-linejoin="round"></path> <path d="M12 19.33355L17.964925 9.122675C18.06785 8.916825 18.11795 8.689125 18.110375 8.459725C18.1028 8.230325 18.0379 8.0063 17.921675 7.80745C17.805425 7.608575 17.6414 7.441025 17.443775 7.3196C17.246275 7.1982 17.02125 7.126675 16.789025 7.111325H12V19.33355Z" stroke="white" stroke-width="1.8" stroke-linecap="round" stroke-linejoin="round"></path> </g> <defs> <clipPath id="clip0_697_2250"> <rect width="6" height="6" fill="white" transform="scale(4)"></rect> </clipPath> </defs> </svg>