<svg xmlns="http://www.w3.org/2000/svg" xmlns:xlink="http://www.w3.org/1999/xlink" viewBox="0 0 24 24" width="24" height="24" preserveAspectRatio="xMidYMid meet" style="width: 100%; height: 100%; transform: translate3d(0px, 0px, 0px); content-visibility: visible;"><defs><clipPath id="__lottie_element_176"><rect width="24" height="24" x="0" y="0"></rect></clipPath></defs><g clip-path="url(#__lottie_element_176)"><g transform="matrix(1.0025897026062012,0,0,1.0025897026062012,-0.0310768224298954,-0.0310768224298954)" opacity="1" style="display: block;"><g opacity="1" transform="matrix(1,0,0,1,5.166999816894531,12)"><path stroke-linecap="round" stroke-linejoin="round" fill-opacity="0" stroke="white" stroke-opacity="1" stroke-width="1.5" d=" M2.1670000553131104,-8 C2.1670000553131104,-8 2.118000030517578,-8 2.118000030517578,-8 C0.4620000123977661,-8 -0.8820000290870667,-6.6570000648498535 -0.8820000290870667,-5 C-0.8820000290870667,-5 -0.8820000290870667,-1.4800000190734863 -0.8820000290870667,-1.4800000190734863 C-0.8820000290870667,-1.2649999856948853 -0.9729999899864197,-1.0609999895095825 -1.1330000162124634,-0.9190000295639038 C-1.1330000162124634,-0.9190000295639038 -2.1670000553131104,0 -2.1670000553131104,0 C-2.1670000553131104,0 -1.1330000162124634,0.9190000295639038 -1.1330000162124634,0.9190000295639038 C-0.9729999899864197,1.0609999895095825 -0.8820000290870667,1.2649999856948853 -0.8820000290870667,1.4800000190734863 C-0.8820000290870667,1.4800000190734863 -0.8820000290870667,5 -0.8820000290870667,5 C-0.8820000290870667,6.6570000648498535 0.4620000123977661,8 2.118000030517578,8 C2.118000030517578,8 2.1670000553131104,8 2.1670000553131104,8"></path></g><g opacity="1" transform="matrix(1,0,0,1,19.165000915527344,12)"><path stroke-linecap="round" stroke-linejoin="round" fill-opacity="0" stroke="white" stroke-opacity="1" stroke-width="1.5" d=" M-2.1670000553131104,-8 C-2.1670000553131104,-8 -2.118000030517578,-8 -2.118000030517578,-8 C-0.4620000123977661,-8 0.8820000290870667,-6.6570000648498535 0.8820000290870667,-5 C0.8820000290870667,-5 0.8820000290870667,-1.4800000190734863 0.8820000290870667,-1.4800000190734863 C0.8820000290870667,-1.2649999856948853 0.9729999899864197,-1.0609999895095825 1.1330000162124634,-0.9190000295639038 C1.1330000162124634,-0.9190000295639038 2.1670000553131104,0 2.1670000553131104,0 C2.1670000553131104,0 1.1330000162124634,0.9190000295639038 1.1330000162124634,0.9190000295639038 C0.9729999899864197,1.0609999895095825 0.8820000290870667,1.2649999856948853 0.8820000290870667,1.4800000190734863 C0.8820000290870667,1.4800000190734863 0.8820000290870667,5 0.8820000290870667,5 C0.8820000290870667,6.6570000648498535 -0.4620000123977661,8 -2.118000030517578,8 C-2.118000030517578,8 -2.1670000553131104,8 -2.1670000553131104,8"></path></g><g opacity="1" transform="matrix(1,0,0,1,8.5,16.25)"><path fill="white" fill-opacity="1" d=" M1.25,0 C1.25,0.6899999976158142 0.6899999976158142,1.25 0,1.25 C-0.6899999976158142,1.25 -1.25,0.6899999976158142 -1.25,0 C-1.25,-0.6899999976158142 -0.6899999976158142,-1.25 0,-1.25 C0.6899999976158142,-1.25 1.25,-0.6899999976158142 1.25,0z"></path></g><g opacity="1" transform="matrix(1,0,0,1,12,16.25)"><path fill="white" fill-opacity="1" d=" M1.25,0 C1.25,0.6899999976158142 0.6899999976158142,1.25 0,1.25 C-0.6899999976158142,1.25 -1.25,0.6899999976158142 -1.25,0 C-1.25,-0.6899999976158142 -0.6899999976158142,-1.25 0,-1.25 C0.6899999976158142,-1.25 1.25,-0.6899999976158142 1.25,0z"></path></g><g opacity="1" transform="matrix(1,0,0,1,15.5,16.25)"><path fill="white" fill-opacity="1" d=" M1.25,0 C1.25,0.6899999976158142 0.6899999976158142,1.25 0,1.25 C-0.6899999976158142,1.25 -1.25,0.6899999976158142 -1.25,0 C-1.25,-0.6899999976158142 -0.6899999976158142,-1.25 0,-1.25 C0.6899999976158142,-1.25 1.25,-0.6899999976158142 1.25,0z"></path></g></g></g></svg>