<svg width="56" height="56" viewBox="0 0 56 56" fill="none" xmlns="http://www.w3.org/2000/svg">
<ellipse cx="28" cy="28" rx="28" ry="28" fill="white"/>
<path d="M39.089 19.4749C39.7038 17.2592 38.7816 14.8374 38.7304 14.6829C38.5767 14.3222 38.2181 14.013 37.8082 14.013C37.7057 14.013 35.3489 13.8069 32.9922 15.6104C31.1477 15.2497 29.0471 15.1466 28.9447 15.1466C28.8934 15.1466 28.8934 15.1466 28.8422 15.1466C28.7397 15.1466 26.6391 15.2497 24.7947 15.6104C22.4379 13.8069 20.0812 14.013 19.9787 14.013C19.5688 14.0645 19.2102 14.3222 19.0565 14.6829C19.0052 14.7859 18.0318 17.2592 18.6978 19.4749C17.5194 21.1238 16.5972 23.288 17.417 27.1526C18.1855 30.6565 21.0546 32.6145 24.0262 33.2844C23.77 34.0058 23.6675 34.8817 23.5651 35.8092C22.3355 35.8608 21.5669 35.1394 20.491 34.0058C19.5688 33.0267 18.5441 31.8931 16.8534 31.5324C16.2898 31.3778 15.7262 31.7385 15.5725 32.3569C15.4701 32.9752 15.8287 33.542 16.4435 33.6451C17.417 33.8512 18.083 34.5726 18.9028 35.4485C19.9787 36.5821 21.2083 37.9734 23.4114 37.9734H23.4626C23.4626 39.1585 23.5651 40.2921 23.6163 41.2196C23.6675 41.838 24.1799 42.2502 24.7947 42.1987C25.4095 42.1471 25.8194 41.6319 25.7681 41.0135C25.4607 37.5096 25.7169 33.7996 26.2805 33.2844C26.6904 33.0267 26.9465 32.563 26.7928 32.0477C26.6904 31.584 26.2805 31.2233 25.7681 31.2233C25.307 31.2233 20.491 30.9656 19.5688 26.6888C18.8003 23.1849 19.7737 21.6391 20.7984 20.4024C21.0546 20.0933 21.1058 19.6295 20.9521 19.2173C20.5423 18.3413 20.696 17.1047 20.9009 16.2802C21.6182 16.3833 22.6941 16.6924 23.8212 17.6715C24.0774 17.9291 24.4361 17.9806 24.7947 17.9291C26.383 17.5169 28.5348 17.4138 28.8934 17.4138C29.2008 17.4138 31.4039 17.5169 32.9922 17.9291C33.3508 18.0322 33.7094 17.9291 33.9656 17.6715C35.0928 16.6924 36.2199 16.3833 36.886 16.2802C37.0909 17.0531 37.2446 18.2898 36.8347 19.2173C36.681 19.578 36.7323 20.0417 36.9884 20.4024C38.0131 21.6391 38.9353 23.1849 38.218 26.6888C37.2958 30.9656 32.4798 31.2233 31.9162 31.2748C31.4039 31.2748 30.994 31.6355 30.8916 32.0992C30.7891 32.563 30.994 33.0783 31.4039 33.3359C32.0187 33.8512 32.2749 37.5096 31.9675 41.0651C31.9162 41.6834 32.3774 42.1987 32.9409 42.2502C32.9922 42.2502 32.9922 42.2502 33.0434 42.2502C33.607 42.2502 34.0681 41.838 34.1193 41.2712C34.3243 39.0039 34.478 35.5001 33.7607 33.2844C36.7323 32.666 39.6014 30.6565 40.3699 27.1526C41.1896 23.288 40.3186 21.1238 39.089 19.4749Z" fill="black"/>
</svg>
