<svg width="50" height="50" viewBox="0 0 50 50" fill="none" xmlns="http://www.w3.org/2000/svg">
<g clip-path="url(#clip0_17_114)" filter="url(#filter0_i_17_114)">
<path d="M43.688 9.77637C44.843 5.63762 43.1104 1.11387 43.0142 0.825123C42.7254 0.151373 42.0517 -0.426127 41.2817 -0.426127C41.0892 -0.426127 36.6617 -0.811126 32.2342 2.55762C28.7692 1.88387 24.8229 1.69137 24.6304 1.69137C24.5342 1.69137 24.5342 1.69137 24.4379 1.69137C24.2454 1.69137 20.2992 1.88387 16.8342 2.55762C12.4067 -0.811126 7.9792 -0.426127 7.7867 -0.426127C7.0167 -0.329877 6.34294 0.151373 6.05419 0.825123C5.95794 1.01762 4.12919 5.63762 5.38044 9.77637C3.16669 12.8564 1.43419 16.8989 2.9742 24.1176C4.41795 30.6626 9.80795 34.3201 15.3904 35.5714C14.9092 36.9189 14.7167 38.5551 14.5242 40.2876C12.2142 40.3839 10.7704 39.0364 8.74919 36.9189C7.01669 35.0901 5.0917 32.9726 1.91544 32.2989C0.856695 32.0101 -0.202055 32.6839 -0.490805 33.8389C-0.683305 34.9939 -0.00955536 36.0526 1.14544 36.2451C2.97419 36.6301 4.22544 37.9776 5.76544 39.6139C7.78669 41.7314 10.0967 44.3301 14.2354 44.3301H14.3317C14.3317 46.5439 14.5242 48.6614 14.6204 50.3939C14.7167 51.5489 15.6792 52.3189 16.8342 52.2226C17.9892 52.1264 18.7592 51.1639 18.6629 50.0089C18.0854 43.4639 18.5667 36.5339 19.6254 35.5714C20.3954 35.0901 20.8767 34.2239 20.5879 33.2614C20.3954 32.3951 19.6254 31.7214 18.6629 31.7214C17.7967 31.7214 8.74919 31.2401 7.01669 23.2514C5.57294 16.7064 7.40169 13.8189 9.3267 11.5089C9.80795 10.9314 9.90419 10.0651 9.61544 9.29512C8.84544 7.65887 9.13419 5.34887 9.51919 3.80887C10.8667 4.00137 12.8879 4.57887 15.0054 6.40762C15.4867 6.88887 16.1604 6.98512 16.8342 6.88887C19.8179 6.11887 23.8604 5.92637 24.5342 5.92637C25.1117 5.92637 29.2504 6.11887 32.2342 6.88887C32.9079 7.08137 33.5817 6.88887 34.0629 6.40762C36.1804 4.57887 38.2979 4.00137 39.5492 3.80887C39.9342 5.25262 40.2229 7.56262 39.4529 9.29512C39.1642 9.96887 39.2604 10.8351 39.7417 11.5089C41.6667 13.8189 43.3992 16.7064 42.0517 23.2514C40.3192 31.2401 31.2717 31.7214 30.2129 31.8176C29.2504 31.8176 28.4804 32.4914 28.2879 33.3576C28.0954 34.2239 28.4804 35.1864 29.2504 35.6676C30.4054 36.6301 30.8867 43.4639 30.3092 50.1051C30.2129 51.2601 31.0792 52.2226 32.1379 52.3189C32.2342 52.3189 32.2342 52.3189 32.3304 52.3189C33.3892 52.3189 34.2554 51.5489 34.3517 50.4901C34.7367 46.2551 35.0254 39.7101 33.6779 35.5714C39.2604 34.4164 44.6505 30.6626 46.0942 24.1176C47.6342 16.8989 45.998 12.8564 43.688 9.77637Z" fill="#018EFF"/>
</g>
<defs>
<filter id="filter0_i_17_114" x="0" y="0" width="77" height="81" filterUnits="userSpaceOnUse" color-interpolation-filters="sRGB">
<feFlood flood-opacity="0" result="BackgroundImageFix"/>
<feBlend mode="normal" in="SourceGraphic" in2="BackgroundImageFix" result="shape"/>
<feColorMatrix in="SourceAlpha" type="matrix" values="0 0 0 0 0 0 0 0 0 0 0 0 0 0 0 0 0 0 127 0" result="hardAlpha"/>
<feOffset dy="4"/>
<feGaussianBlur stdDeviation="2"/>
<feComposite in2="hardAlpha" operator="arithmetic" k2="-1" k3="1"/>
<feColorMatrix type="matrix" values="0 0 0 0 0 0 0 0 0 0 0 0 0 0 0 0 0 0 0.25 0"/>
<feBlend mode="normal" in2="shape" result="effect1_innerShadow_17_114"/>
</filter>
<clipPath id="clip0_17_114">
<rect width="77" height="77" fill="white"/>
</clipPath>
</defs>
</svg>
