<svg width="50" height="50" viewBox="0 0 50 50" fill="none" xmlns="http://www.w3.org/2000/svg">
<g clip-path="url(#clip0_7_2340)">
<g filter="url(#filter0_i_7_2340)">
<mask id="mask0_7_2340" style="mask-type:luminance" maskUnits="userSpaceOnUse" x="0" y="0" width="50" height="50">
<path d="M2 48V2H48V48H2Z" fill="white" stroke="white" stroke-width="4"/>
</mask>
<g mask="url(#mask0_7_2340)">
<path d="M20.833 35.417L25.9165 39.563L20.833 43.709" stroke="white" stroke-width="4" stroke-linecap="round" stroke-linejoin="round"/>
<path d="M12.4993 14.5829C14.8015 14.5829 16.6662 12.7183 16.6662 10.4161C16.6662 8.11392 14.8015 6.24927 12.4993 6.24927C10.1972 6.24927 8.33252 8.11392 8.33252 10.4161C8.33252 12.7183 10.1972 14.5829 12.4993 14.5829Z" stroke="white" stroke-width="4" stroke-linecap="round" stroke-linejoin="round"/>
<path d="M37.5003 43.7506C39.8025 43.7506 41.6671 41.886 41.6671 39.5838C41.6671 37.2816 39.8025 35.417 37.5003 35.417C35.1981 35.417 33.3335 37.2816 33.3335 39.5838C33.3335 41.886 35.1981 43.7506 37.5003 43.7506Z" stroke="white" stroke-width="4" stroke-linecap="round" stroke-linejoin="round"/>
<path d="M16.6662 10.416H35.4169C37.0753 10.416 38.6649 11.1848 39.8358 12.5515C41.0087 13.9182 41.6671 15.7745 41.6671 17.708C41.6671 19.6414 41.0087 21.4956 39.8358 22.8644C38.6649 24.2311 37.0753 24.9999 35.4169 24.9999H14.5828C12.9244 24.9999 11.3347 25.7687 10.1638 27.1354C8.99088 28.5042 8.33252 30.3584 8.33252 32.2918C8.33252 34.2252 8.99088 36.0795 10.1638 37.4483C11.3347 38.815 12.9244 39.5838 14.5828 39.5838H24.9998" stroke="white" stroke-width="4" stroke-linecap="round" stroke-linejoin="round"/>
</g>
</g>
</g>
<defs>
<filter id="filter0_i_7_2340" x="6.33252" y="4.24927" width="37.3345" height="44.5015" filterUnits="userSpaceOnUse" color-interpolation-filters="sRGB">
<feFlood flood-opacity="0" result="BackgroundImageFix"/>
<feBlend mode="normal" in="SourceGraphic" in2="BackgroundImageFix" result="shape"/>
<feColorMatrix in="SourceAlpha" type="matrix" values="0 0 0 0 0 0 0 0 0 0 0 0 0 0 0 0 0 0 127 0" result="hardAlpha"/>
<feOffset dy="3"/>
<feGaussianBlur stdDeviation="1.5"/>
<feComposite in2="hardAlpha" operator="arithmetic" k2="-1" k3="1"/>
<feColorMatrix type="matrix" values="0 0 0 0 0 0 0 0 0 0 0 0 0 0 0 0 0 0 0.25 0"/>
<feBlend mode="normal" in2="shape" result="effect1_innerShadow_7_2340"/>
</filter>
<clipPath id="clip0_7_2340">
<rect width="50" height="50" fill="white"/>
</clipPath>
</defs>
</svg>
