<svg width="24" height="24" viewBox="0 0 24 24" fill="none" xmlns="http://www.w3.org/2000/svg">
<g clip-path="url(#clip0_25_563)">
<mask id="mask0_25_563" style="mask-type:luminance" maskUnits="userSpaceOnUse" x="0" y="0" width="24" height="24">
<path d="M24 0H0V24H24V0Z" fill="white"/>
</mask>
<g mask="url(#mask0_25_563)">
<path d="M12.1053 2.86475C14.3653 2.86475 16.2003 6.95814 16.2003 11.9997C16.2003 17.0414 14.3653 21.1347 12.1053 21.1347C9.84522 21.1347 8.01025 17.0414 8.01025 11.9997C8.01025 6.95814 9.84522 2.86475 12.1053 2.86475Z" stroke="black" stroke-width="1.47"/>
<path d="M12.1052 2.75977C17.2048 2.75977 21.3452 6.90021 21.3452 11.9998C21.3452 17.0993 17.2048 21.2398 12.1052 21.2398C7.00568 21.2398 2.86523 17.0993 2.86523 11.9998C2.86523 6.90021 7.00568 2.75977 12.1052 2.75977Z" stroke="black" stroke-width="1.47"/>
<path d="M12.0002 7.96777C17.011 7.96777 21.0722 9.7731 21.0722 11.9998C21.0722 14.2264 17.011 16.0318 12.0002 16.0318C6.98945 16.0318 2.92822 14.2264 2.92822 11.9998C2.92822 9.7731 6.98945 7.96777 12.0002 7.96777Z" stroke="black" stroke-width="1.512"/>
</g>
</g>
<defs>
<clipPath id="clip0_25_563">
<rect width="24" height="24" fill="white"/>
</clipPath>
</defs>
</svg>
