<?xml version="1.0" encoding="UTF-8"?>
<svg id="_Слой_2" data-name="Слой 2" xmlns="http://www.w3.org/2000/svg" viewBox="0 0 124.51 66.26">
  <defs>
    <style>
      .cls-1, .cls-2 {
        stroke-width: 0px;
      }

      .cls-2 {
        fill: #030204;
      }
    </style>
  </defs>
  <g id="_Слой_2-2" data-name="Слой 2">
    <g>
      <path class="cls-2" d="M57.77.5v48.86c0,.18-.1.35-.25.44l-28.38,16.39c-.16.09-.35.09-.5,0L.25,49.8c-.16-.09-.25-.26-.25-.44V.5C0,.12.42-.13.75.07l12.19,7.03c.16.09.25.26.25.44v34.21c0,.18.1.35.25.44l15.18,8.77c.16.09.35.09.5,0l15.18-8.77c.16-.09.25-.26.25-.44V7.53c0-.18.1-.35.25-.44L57.01.07c.33-.19.75.05.75.44Z"/>
      <g>
        <path class="cls-1" d="M82.87,37.07v-13.48h3.09v13.48c0,.9-.32,1.66-.95,2.29-.63.63-1.39.94-2.27.94h-10.25c-.9,0-1.66-.31-2.29-.94-.63-.63-.94-1.39-.94-2.29v-13.48h3.06v13.48c0,.11.05.16.16.16h10.25c.09,0,.14-.05.14-.16Z"/>
        <path class="cls-1" d="M88.55,23.59h13.46c.9,0,1.66.31,2.3.94.63.63.95,1.39.95,2.29v10.25c0,.9-.32,1.66-.95,2.29-.63.63-1.4.94-2.3.94h-13.46v-16.7ZM102.17,37.07v-10.25c0-.11-.05-.16-.16-.16h-10.23c-.11,0-.16.05-.16.16v10.25c0,.11.05.16.16.16h10.23c.11,0,.16-.05.16-.16Z"/>
        <path class="cls-1" d="M111.03,23.59h10.25c.88,0,1.64.31,2.27.94.63.63.95,1.39.95,2.29v10.25c0,.9-.32,1.66-.95,2.29-.63.63-1.39.94-2.27.94h-10.25c-.9,0-1.66-.31-2.29-.94-.63-.63-.94-1.39-.94-2.29v-10.25c0-.9.31-1.66.94-2.29.63-.63,1.39-.94,2.29-.94ZM111.03,37.23h10.25c.09,0,.14-.05.14-.16v-10.25c0-.11-.05-.16-.14-.16h-10.25c-.11,0-.16.05-.16.16v10.25c0,.11.05.16.16.16Z"/>
      </g>
    </g>
  </g>
</svg>