<svg width="96" height="96" viewBox="0 0 96 96" fill="none" xmlns="http://www.w3.org/2000/svg">
<path d="M49.2 49.38C51.3343 47.5325 53.0462 45.2475 54.2195 42.6801C55.3928 40.1126 56 37.3228 56 34.5C56 29.1957 53.8929 24.1086 50.1421 20.3579C46.3914 16.6071 41.3043 14.5 36 14.5C30.6957 14.5 25.6086 16.6071 21.8579 20.3579C18.1071 24.1086 16 29.1957 16 34.5C16 37.3228 16.6072 40.1126 17.7805 42.6801C18.9538 45.2475 20.6657 47.5325 22.8 49.38C17.2006 51.9155 12.4499 56.0101 9.11592 61.1742C5.78198 66.3382 4.00589 72.3532 4 78.5C4 79.5609 4.42143 80.5783 5.17157 81.3284C5.92172 82.0786 6.93913 82.5 8 82.5C9.06087 82.5 10.0783 82.0786 10.8284 81.3284C11.5786 80.5783 12 79.5609 12 78.5C12 72.1348 14.5286 66.0303 19.0294 61.5294C23.5303 57.0286 29.6348 54.5 36 54.5C42.3652 54.5 48.4697 57.0286 52.9706 61.5294C57.4714 66.0303 60 72.1348 60 78.5C60 79.5609 60.4214 80.5783 61.1716 81.3284C61.9217 82.0786 62.9391 82.5 64 82.5C65.0609 82.5 66.0783 82.0786 66.8284 81.3284C67.5786 80.5783 68 79.5609 68 78.5C67.9941 72.3532 66.218 66.3382 62.8841 61.1742C59.5501 56.0101 54.7994 51.9155 49.2 49.38ZM36 46.5C33.6266 46.5 31.3065 45.7962 29.3332 44.4776C27.3598 43.1591 25.8217 41.2849 24.9134 39.0922C24.0052 36.8995 23.7676 34.4867 24.2306 32.1589C24.6936 29.8311 25.8365 27.693 27.5147 26.0147C29.1929 24.3365 31.3311 23.1936 33.6589 22.7306C35.9867 22.2676 38.3995 22.5052 40.5922 23.4134C42.7849 24.3217 44.6591 25.8598 45.9776 27.8332C47.2962 29.8065 48 32.1266 48 34.5C48 37.6826 46.7357 40.7348 44.4853 42.9853C42.2348 45.2357 39.1826 46.5 36 46.5ZM74.96 47.78C77.5199 44.8973 79.192 41.3362 79.7752 37.5254C80.3584 33.7145 79.8277 29.8163 78.2471 26.3C76.6664 22.7837 74.1032 19.7992 70.8659 17.7057C67.6286 15.6122 63.8552 14.499 60 14.5C58.9391 14.5 57.9217 14.9214 57.1716 15.6716C56.4214 16.4217 56 17.4391 56 18.5C56 19.5609 56.4214 20.5783 57.1716 21.3284C57.9217 22.0786 58.9391 22.5 60 22.5C63.1826 22.5 66.2348 23.7643 68.4853 26.0147C70.7357 28.2652 72 31.3174 72 34.5C71.9943 36.601 71.4372 38.6636 70.3842 40.4817C69.3313 42.2998 67.8195 43.8095 66 44.86C65.407 45.2021 64.9116 45.6907 64.5615 46.279C64.2113 46.8673 64.018 47.5356 64 48.22C63.9833 48.8991 64.1397 49.5712 64.4547 50.173C64.7696 50.7749 65.2326 51.2866 65.8 51.66L67.36 52.7L67.88 52.98C72.7016 55.2669 76.7692 58.884 79.6039 63.4053C82.4386 67.9266 83.9222 73.1637 83.88 78.5C83.88 79.5609 84.3014 80.5783 85.0516 81.3284C85.8017 82.0786 86.8191 82.5 87.88 82.5C88.9409 82.5 89.9583 82.0786 90.7084 81.3284C91.4586 80.5783 91.88 79.5609 91.88 78.5C91.9127 72.3617 90.3753 66.317 87.4139 60.9402C84.4525 55.5635 80.1654 51.0332 74.96 47.78Z" fill="white"/>
</svg>
