<svg width="44" height="44" viewBox="0 0 35 35" fill="none" xmlns="http://www.w3.org/2000/svg">
<path class='svgIcon' d="M14.827 10.9825L9.3174 11.4521L6.40949 14.36C6.22741 14.5399 6.09932 14.7671 6.03974 15.0161C5.98015 15.265 5.99145 15.5256 6.07234 15.7684C6.15323 16.0113 6.3005 16.2266 6.49745 16.3901C6.69441 16.5535 6.9332 16.6586 7.18678 16.6933L11.1214 17.1542M23.3568 19.5123L22.8872 25.0248L19.9793 27.9327C19.7991 28.1127 19.5724 28.2389 19.3246 28.2972C19.0767 28.3556 18.8175 28.3437 18.576 28.263C18.3345 28.1823 18.1203 28.0359 17.9573 27.8403C17.7943 27.6447 17.689 27.4075 17.6532 27.1554L17.0699 23.2879M28.9787 6.9925C28.9099 6.58429 28.7156 6.20765 28.4229 5.91493C28.1302 5.62221 27.7535 5.42796 27.3453 5.35916C24.9887 4.95229 20.1907 4.45062 18.0412 6.60312C15.6043 9.04146 10.4418 18.2917 8.83907 21.22C8.69701 21.479 8.64322 21.7773 8.68585 22.0697C8.72848 22.362 8.8652 22.6325 9.07532 22.8402L10.2828 24.0579L11.4976 25.2712C11.7051 25.4816 11.9755 25.6186 12.2679 25.6615C12.5603 25.7044 12.8586 25.6508 13.1178 25.509C16.0462 23.9019 25.2949 18.7394 27.7318 16.304C29.8828 14.1485 29.3841 9.34771 28.9787 6.9925ZM24.6605 12.4204C24.6605 13.1475 24.3717 13.8449 23.8575 14.3591C23.3434 14.8732 22.646 15.1621 21.9189 15.1621C21.1917 15.1621 20.4944 14.8732 19.9802 14.3591C19.4661 13.8449 19.1772 13.1475 19.1772 12.4204C19.1772 11.6933 19.4661 10.9959 19.9802 10.4818C20.4944 9.9676 21.1917 9.67875 21.9189 9.67875C22.646 9.67875 23.3434 9.9676 23.8575 10.4818C24.3717 10.9959 24.6605 11.6933 24.6605 12.4204Z" 
stroke="white" stroke-width="2" stroke-linecap="round" stroke-linejoin="round"/>
</svg>
