<svg width="77" height="77" viewBox="0 0 77 77" fill="none" xmlns="http://www.w3.org/2000/svg">
<g filter="url(#filter0_i_47_95)">
<path d="M58.6163 22.33C59.7713 18.1912 58.0388 13.6675 57.9425 13.3787C57.6538 12.705 56.98 12.1275 56.21 12.1275C56.0175 12.1275 51.59 11.7425 47.1625 15.1112C43.6975 14.4375 39.7513 14.245 39.5588 14.245C39.4625 14.245 39.4625 14.245 39.3663 14.245C39.1738 14.245 35.2275 14.4375 31.7625 15.1112C27.335 11.7425 22.9075 12.1275 22.715 12.1275C21.945 12.2237 21.2713 12.705 20.9825 13.3787C20.8863 13.5712 19.0575 18.1912 20.3088 22.33C18.095 25.41 16.3625 29.4525 17.9025 36.6712C19.3463 43.2162 24.7363 46.8737 30.3188 48.125C29.8375 49.4725 29.645 51.1087 29.4525 52.8412C27.1425 52.9375 25.6988 51.59 23.6775 49.4725C21.945 47.6437 20.02 45.5262 16.8438 44.8525C15.785 44.5637 14.7263 45.2375 14.4375 46.3925C14.245 47.5475 14.9188 48.6062 16.0738 48.7987C17.9025 49.1837 19.1538 50.5312 20.6938 52.1675C22.715 54.285 25.025 56.8837 29.1638 56.8837H29.26C29.26 59.0975 29.4525 61.215 29.5488 62.9475C29.645 64.1025 30.6075 64.8725 31.7625 64.7762C32.9175 64.68 33.6875 63.7175 33.5913 62.5625C33.0138 56.0175 33.495 49.0875 34.5538 48.125C35.3238 47.6437 35.805 46.7775 35.5163 45.815C35.3238 44.9487 34.5538 44.275 33.5913 44.275C32.725 44.275 23.6775 43.7937 21.945 35.805C20.5013 29.26 22.33 26.3725 24.255 24.0625C24.7363 23.485 24.8325 22.6187 24.5438 21.8487C23.7738 20.2125 24.0625 17.9025 24.4475 16.3625C25.795 16.555 27.8163 17.1325 29.9338 18.9612C30.415 19.4425 31.0888 19.5387 31.7625 19.4425C34.7463 18.6725 38.7888 18.48 39.4625 18.48C40.04 18.48 44.1788 18.6725 47.1625 19.4425C47.8363 19.635 48.51 19.4425 48.9913 18.9612C51.1088 17.1325 53.2263 16.555 54.4775 16.3625C54.8625 17.8062 55.1513 20.1162 54.3813 21.8487C54.0925 22.5225 54.1888 23.3887 54.67 24.0625C56.595 26.3725 58.3275 29.26 56.98 35.805C55.2475 43.7937 46.2 44.275 45.1413 44.3712C44.1788 44.3712 43.4088 45.045 43.2163 45.9112C43.0238 46.7775 43.4088 47.74 44.1788 48.2212C45.3338 49.1837 45.815 56.0175 45.2375 62.6587C45.1413 63.8137 46.0075 64.7762 47.0663 64.8725C47.1625 64.8725 47.1625 64.8725 47.2588 64.8725C48.3175 64.8725 49.1838 64.1025 49.28 63.0437C49.665 58.8087 49.9538 52.2637 48.6063 48.125C54.1888 46.97 59.5788 43.2162 61.0225 36.6712C62.5625 29.4525 60.9263 25.41 58.6163 22.33Z" fill="#018EFF"/>
</g>
<defs>
<filter id="filter0_i_47_95" x="0" y="0" width="77" height="81" filterUnits="userSpaceOnUse" color-interpolation-filters="sRGB">
<feFlood flood-opacity="0" result="BackgroundImageFix"/>
<feBlend mode="normal" in="SourceGraphic" in2="BackgroundImageFix" result="shape"/>
<feColorMatrix in="SourceAlpha" type="matrix" values="0 0 0 0 0 0 0 0 0 0 0 0 0 0 0 0 0 0 127 0" result="hardAlpha"/>
<feOffset dy="4"/>
<feGaussianBlur stdDeviation="2"/>
<feComposite in2="hardAlpha" operator="arithmetic" k2="-1" k3="1"/>
<feColorMatrix type="matrix" values="0 0 0 0 0 0 0 0 0 0 0 0 0 0 0 0 0 0 0.25 0"/>
<feBlend mode="normal" in2="shape" result="effect1_innerShadow_47_95"/>
</filter>
</defs>
</svg>
