<svg width="50" height="50" viewBox="0 0 50 50" fill="none" xmlns="http://www.w3.org/2000/svg">
<g filter="url(#filter0_i_47_75)">
<path fill-rule="evenodd" clip-rule="evenodd" d="M22.8955 24.1482C21.5716 25.0573 20.1338 26.0463 18.5826 27.1154C17.0824 28.1672 15.7236 28.6798 14.5061 28.653C13.164 28.6231 10.5823 27.8781 8.66305 27.2412C8.38115 27.1475 8.1062 27.0594 7.8409 26.974C5.8901 26.3478 4.45753 25.8877 4.60095 24.7199C4.68581 24.0288 5.61795 23.3219 7.39735 22.5993C18.3555 17.7248 25.6627 14.5112 29.3188 12.9585C39.7579 8.52535 41.9268 7.75525 43.3409 7.72955C43.6518 7.7242 44.347 7.8029 44.7975 8.176C45.1777 8.4911 45.2824 8.9167 45.3324 9.2154C45.3824 9.5141 45.4449 10.1945 45.3951 10.7263C44.8295 16.7949 42.3817 31.5221 41.1366 38.3191C40.6096 41.1952 39.572 42.1596 38.5675 42.2538C36.839 42.4163 35.4397 41.3978 33.8823 40.2643C33.473 39.9664 33.0527 39.6604 32.6128 39.3659C30.8857 38.21 29.551 37.282 28.2127 36.3514C26.9874 35.4994 25.7591 34.6453 24.2241 33.6126C21.0299 31.4636 22.3671 30.1474 24.15 28.3924C24.4388 28.1083 24.7389 27.8126 25.0338 27.5001C25.0802 27.4509 25.1901 27.3431 25.3529 27.1865C25.6519 26.8988 26.1286 26.4462 26.7161 25.8888C28.452 24.2407 31.1537 21.6761 33.0815 19.744C33.7836 19.0399 34.3832 18.4199 34.7958 17.9587C35.1487 17.5641 35.3647 17.2858 35.3913 17.1709C35.4145 17.0696 35.4361 16.6918 35.2164 16.4923C34.9967 16.2929 34.6723 16.3611 34.4382 16.4153C34.3783 16.4292 34.1563 16.5571 33.7728 16.799C33.3188 17.0852 32.6385 17.531 31.7318 18.1364C29.8069 19.4213 26.8615 21.4252 22.8955 24.1482ZM18.4214 31.6832C18.4862 32.3467 18.6766 33.0237 19.019 33.6933C19.7262 35.0761 20.9131 36.0803 22.0494 36.8449C23.5592 37.8607 24.766 38.6996 25.9932 39.553L26.1581 39.6679C27.4434 40.5613 28.7615 41.476 30.4461 42.6034C30.8166 42.8516 31.1648 43.1047 31.5718 43.4009C31.6586 43.464 31.7481 43.5291 31.841 43.5965C32.3312 43.9522 32.9253 44.3772 33.5606 44.7583C34.8511 45.5323 36.6663 46.3456 38.9319 46.1325C42.7655 45.7724 44.3834 42.2141 44.9684 39.021C46.2111 32.2376 48.6902 17.351 49.2741 11.0878C49.3641 10.1222 49.261 9.088 49.1745 8.5714C49.0861 8.0447 48.7852 6.42095 47.2827 5.1761C46.4385 4.47685 45.5311 4.17037 44.9403 4.02626C44.3269 3.87654 43.7413 3.82642 43.274 3.83443L43.2699 3.83449C41.8492 3.86032 40.4151 4.27703 38.3608 5.03825C36.2372 5.8251 33.001 7.1623 27.796 9.37275C24.1105 10.9378 16.7918 14.1567 5.8697 19.0152C4.8586 19.4293 3.84921 19.9308 3.0099 20.5672C2.24482 21.1472 0.969039 22.3332 0.734294 24.2452C0.563024 25.6398 0.963569 26.9554 1.78917 27.9914C2.49686 28.8796 3.37731 29.3883 3.9611 29.6771C4.81748 30.1004 5.98075 30.4718 6.8562 30.7512C7.06935 30.8191 7.26545 30.8819 7.4359 30.9385C8.44965 31.2748 9.6664 31.6495 10.8348 31.9488C11.9107 32.224 13.2664 32.5222 14.4202 32.5476C15.8326 32.5788 17.1749 32.2384 18.4214 31.6832Z" fill="#018EFF"/>
</g>
<defs>
<filter id="filter0_i_47_75" x="0.695312" y="3.83362" width="48.6136" height="46.3334" filterUnits="userSpaceOnUse" color-interpolation-filters="sRGB">
<feFlood flood-opacity="0" result="BackgroundImageFix"/>
<feBlend mode="normal" in="SourceGraphic" in2="BackgroundImageFix" result="shape"/>
<feColorMatrix in="SourceAlpha" type="matrix" values="0 0 0 0 0 0 0 0 0 0 0 0 0 0 0 0 0 0 127 0" result="hardAlpha"/>
<feOffset dy="4"/>
<feGaussianBlur stdDeviation="2"/>
<feComposite in2="hardAlpha" operator="arithmetic" k2="-1" k3="1"/>
<feColorMatrix type="matrix" values="0 0 0 0 0 0 0 0 0 0 0 0 0 0 0 0 0 0 0.25 0"/>
<feBlend mode="normal" in2="shape" result="effect1_innerShadow_47_75"/>
</filter>
</defs>
</svg>
